<?xml version="1.0" standalone="no"?><!DOCTYPE svg PUBLIC "-//W3C//DTD SVG 1.1//EN" "http://www.w3.org/Graphics/SVG/1.1/DTD/svg11.dtd"><svg t="1760773057230" class="icon" viewBox="0 0 1024 1024" version="1.1" xmlns="http://www.w3.org/2000/svg" p-id="2665" xmlns:xlink="http://www.w3.org/1999/xlink" width="200" height="200"><path d="M259.68 427.7A116.5 116.5 0 1 0 376.8 544c0-64.33-52.79-116.29-117.12-116.29z m0 177.32a61 61 0 1 1 61-61c0 33.4-27.63 61-61 61z m0 0" fill="#E8F0FA" p-id="2666"></path><path d="M762.79 511h-362.9l186.4-193.82-38.76-37.11-210.32 218.56 13.2 12.78v56.91l-13.2 12.79 210.32 218.56 38.76-37.12L403.6 572.86h359.19z m0 0" fill="#E8F0FA" p-id="2667"></path><path d="M630.83 372a116.86 116.86 0 0 0 116.7-116.71C747.53 191 695.16 139 630.83 139a116.16 116.16 0 0 0-116.3 116.29c0 64.34 52 116.71 116.3 116.71z m0-177.32a61 61 0 1 1-61 61 61.15 61.15 0 0 1 61-61z m210.31 228.89a116.71 116.71 0 1 0 116.71 116.71 116.86 116.86 0 0 0-116.71-116.71z m0 177.33a61 61 0 1 1 61-61c0 33.4-27.62 61-61 61zM630.83 716.37a116.71 116.71 0 1 0 116.7 116.7 116.86 116.86 0 0 0-116.7-116.7z m0 177.32a61 61 0 1 1 61-61 61.16 61.16 0 0 1-61 61z m0 0" fill="#E8F0FA" p-id="2668"></path><path d="M182.45 362.89a116.5 116.5 0 1 0 117.11 116.29c0-64.33-52.78-116.29-117.11-116.29z m0 177.33a61 61 0 1 1 61-61c0 33.4-27.63 61-61 61z m0 0" fill="#343399" p-id="2669"></path><path d="M685.55 446.19H322.66l186.39-193.82-38.76-37.11L260 433.82l13.2 12.78v56.91L260 516.3l210.29 218.56 38.76-37.12-182.68-189.69h359.18z m0 0" fill="#343399" p-id="2670"></path><path d="M553.59 307.22a116.86 116.86 0 0 0 116.7-116.71c0-64.33-52.37-116.29-116.7-116.29A116.16 116.16 0 0 0 437.3 190.51c0 64.34 52 116.71 116.29 116.71z m0-177.32a61 61 0 1 1-61 61 61.15 61.15 0 0 1 61-61z m210.32 228.86a116.71 116.71 0 1 0 116.7 116.71 116.87 116.87 0 0 0-116.7-116.71z m0 177.33a61 61 0 1 1 61-61c0 33.4-27.63 61-61 61zM553.59 651.56a116.71 116.71 0 1 0 116.7 116.7 116.86 116.86 0 0 0-116.7-116.7z m0 177.32a61 61 0 1 1 61-61 61.16 61.16 0 0 1-61 61z m0 0" fill="#F59D0D" p-id="2671"></path></svg>